<?xml version="1.0" encoding="utf-8"?>
<!-- Generator: Adobe Illustrator 27.9.0, SVG Export Plug-In . SVG Version: 6.00 Build 0)  -->
<svg version="1.1" id="Capa_1" xmlns="http://www.w3.org/2000/svg" xmlns:xlink="http://www.w3.org/1999/xlink" x="0px" y="0px"
	 viewBox="0 0 450 90" style="enable-background:new 0 0 450 90;" xml:space="preserve">
<style type="text/css">
	.st0{fill:#1F1F1F;}
	.st1{fill:#FFFFFF;}
	.st2{fill:none;stroke:#FFFFFF;}
	.st3{enable-background:new    ;}
</style>
<g>
	<rect class="st0" width="450" height="90"/>
	<g id="Grupo_5451" transform="translate(-1109.402 -2826.644)">
		<g id="Grupo_3210" transform="translate(1006.635 2785.643)">
			<path id="Trazado_344" class="st1" d="M137.3,77.6l7.7,9.6V93c0,0.8-0.2,1.6-0.6,2.2h9.6c-0.4-0.7-0.6-1.4-0.6-2.2v-5.8l7.8-9.7
				c0.6-0.9,1.5-1.6,2.4-2.2h-9.8c-0.3,0.9-0.8,1.7-1.3,2.5l-3.3,5c0,0-0.1,0-0.1,0l-3.2-5c-0.5-0.8-1-1.6-1.3-2.5h-9.7
				C135.8,75.9,136.7,76.7,137.3,77.6z"/>
			<path id="Trazado_345" class="st1" d="M166.9,95.2h9.6c-0.4-0.7-0.6-1.4-0.6-2.2v-4.8h6.9c4.4,0,7.7-2.3,7.7-6.4
				s-3.2-6.4-7.7-6.4h-16c0.4,0.6,0.7,1.4,0.6,2.2V93C167.6,93.8,167.3,94.5,166.9,95.2z M176,79.1h2.7c1.9,0,3.5,0.8,3.5,2.7
				s-1.6,2.8-3.5,2.8h-2.7L176,79.1z"/>
			<path id="Trazado_346" class="st1" d="M195,93c0.1,0.8-0.2,1.5-0.6,2.2h9.6c-0.4-0.6-0.6-1.4-0.5-2.2v-4.8h7.6
				c0.9,0,1.8,0.1,2.6,0.4v-4.7c-0.8,0.2-1.7,0.3-2.6,0.3h-7.7v-4.8h9.5c0.8,0,1.6,0.2,2.4,0.6v-4.6h-21c0.4,0.6,0.7,1.4,0.6,2.2V93
				z"/>
		</g>
		<path id="Trazado_2904" class="st2" d="M1257.9,2861v19.8"/>
		<g class="st3">
			<path class="st1" d="M1294.2,2869.8c-0.6-0.8-1.2-1.3-2.6-1.3c-1.3,0-2.1,0.6-2.1,1.7c0,1.3,1,1.8,2.6,2c2.1,0.4,3.4,1.1,3.4,3.2
				c0,1.4-1,3.1-3.7,3.1c-1.8,0-3.1-0.6-3.9-1.8l1.1-0.8c0.7,0.8,1.4,1.3,2.8,1.3c1.8,0,2.3-0.8,2.3-1.8c0-1-0.5-1.7-2.6-2.1
				s-3.4-1.3-3.4-3.2c0-1.6,1-3,3.6-3c1.8,0,2.9,0.6,3.6,1.8L1294.2,2869.8z"/>
			<path class="st1" d="M1303.7,2870.8c-0.4-1.7-1.3-2.3-2.6-2.3c-1.7,0-2.6,1.1-2.6,3.8v1.2c0,2.7,0.9,3.8,2.6,3.8
				c1.4,0,2.3-0.7,2.6-2.3h1.3c-0.4,2.5-1.9,3.6-4,3.6c-2.4,0-4-1.5-4-5v-1.2c0-3.6,1.6-5,4-5c2.2,0,3.6,1.2,4,3.6H1303.7z"/>
			<path class="st1" d="M1310.3,2878.5c-2.4,0-4-1.5-4-5v-1.2c0-3.6,1.6-5,4-5c2.4,0,4,1.5,4,5v1.2
				C1314.3,2877,1312.7,2878.5,1310.3,2878.5z M1307.7,2873.5c0,2.7,0.9,3.8,2.6,3.8c1.7,0,2.6-1.1,2.6-3.8v-1.2
				c0-2.7-0.9-3.8-2.6-3.8c-1.7,0-2.6,1.1-2.6,3.8V2873.5z"/>
			<path class="st1" d="M1322.7,2878.4l-2.3-4.7h-2.6v4.7h-1.4v-11h3.5c2.5,0,4,1.1,4,3.2c0,1.6-0.8,2.5-2.2,2.9l2.5,4.9H1322.7z
				 M1320,2872.5c1.9,0,2.6-0.6,2.6-1.9c0-1.4-0.8-2-2.6-2h-2.1v3.9H1320z"/>
			<path class="st1" d="M1332.8,2867.3v1.2h-5.3v3.5h4.8v1.2h-4.8v3.8h5.3v1.2h-6.7v-11H1332.8z"/>
			<path class="st1" d="M1338.8,2878.4v-11h3.5c2.4,0,4,1.4,4,4.9v1.2c0,3.6-1.6,4.9-4,4.9H1338.8z M1344.9,2873.4v-1.2
				c0-2.7-0.9-3.7-2.6-3.7h-2.1v8.5h2.1C1344,2877.1,1344.9,2876.2,1344.9,2873.4z"/>
			<path class="st1" d="M1355.1,2867.3v1.2h-5.3v3.5h4.8v1.2h-4.8v3.8h5.3v1.2h-6.7v-11H1355.1z"/>
			<path class="st1" d="M1362.5,2874.2v4.2h-1.4v-11h3.5c2.5,0,4,1.3,4,3.4c0,2.1-1.5,3.4-4,3.4H1362.5z M1364.6,2872.9
				c1.9,0,2.6-0.8,2.6-2.2c0-1.4-0.8-2.2-2.6-2.2h-2.1v4.3H1364.6z"/>
			<path class="st1" d="M1376.8,2878.4l-2.3-4.7h-2.6v4.7h-1.4v-11h3.5c2.5,0,4,1.1,4,3.2c0,1.6-0.8,2.5-2.2,2.9l2.5,4.9H1376.8z
				 M1374,2872.5c1.9,0,2.6-0.6,2.6-1.9c0-1.4-0.8-2-2.6-2h-2.1v3.9H1374z"/>
			<path class="st1" d="M1383.6,2878.5c-2.4,0-4-1.5-4-5v-1.2c0-3.6,1.6-5,4-5c2.4,0,4,1.5,4,5v1.2
				C1387.6,2877,1386.1,2878.5,1383.6,2878.5z M1381,2873.5c0,2.7,0.9,3.8,2.6,3.8c1.7,0,2.6-1.1,2.6-3.8v-1.2
				c0-2.7-0.9-3.8-2.6-3.8c-1.7,0-2.6,1.1-2.6,3.8V2873.5z"/>
			<path class="st1" d="M1389.9,2867.3l3.1,8.8l3.2-8.8h1.5l-4,11h-1.3l-4-11H1389.9z"/>
			<path class="st1" d="M1405.9,2867.3v1.2h-5.3v3.5h4.8v1.2h-4.8v3.8h5.3v1.2h-6.7v-11H1405.9z"/>
			<path class="st1" d="M1414.5,2867.3v1.2h-5.3v3.5h4.8v1.2h-4.8v3.8h5.3v1.2h-6.7v-11H1414.5z"/>
			<path class="st1" d="M1416.5,2878.4v-11h3.5c2.4,0,4,1.4,4,4.9v1.2c0,3.6-1.6,4.9-4,4.9H1416.5z M1422.7,2873.4v-1.2
				c0-2.7-0.9-3.7-2.6-3.7h-2.1v8.5h2.1C1421.8,2877.1,1422.7,2876.2,1422.7,2873.4z"/>
			<path class="st1" d="M1429.7,2878.5c-2.4,0-4-1.5-4-5v-1.2c0-3.6,1.6-5,4-5c2.4,0,4,1.5,4,5v1.2
				C1433.7,2877,1432.1,2878.5,1429.7,2878.5z M1427,2873.5c0,2.7,0.9,3.8,2.6,3.8c1.7,0,2.6-1.1,2.6-3.8v-1.2
				c0-2.7-0.9-3.8-2.6-3.8c-1.7,0-2.6,1.1-2.6,3.8V2873.5z"/>
			<path class="st1" d="M1442.1,2878.4l-2.3-4.7h-2.6v4.7h-1.4v-11h3.5c2.5,0,4,1.1,4,3.2c0,1.6-0.8,2.5-2.2,2.9l2.5,4.9H1442.1z
				 M1439.3,2872.5c1.9,0,2.6-0.6,2.6-1.9c0-1.4-0.8-2-2.6-2h-2.1v3.9H1439.3z"/>
			<path class="st1" d="M1452.1,2867.3v1.2h-5.3v3.5h4.8v1.2h-4.8v3.8h5.3v1.2h-6.7v-11H1452.1z"/>
			<path class="st1" d="M1459.9,2869.8c-0.6-0.8-1.2-1.3-2.6-1.3c-1.3,0-2.1,0.6-2.1,1.7c0,1.3,1,1.8,2.6,2c2.1,0.4,3.4,1.1,3.4,3.2
				c0,1.4-1,3.1-3.7,3.1c-1.8,0-3.1-0.6-3.9-1.8l1.1-0.8c0.7,0.8,1.4,1.3,2.8,1.3c1.8,0,2.3-0.8,2.3-1.8c0-1-0.5-1.7-2.6-2.1
				s-3.4-1.3-3.4-3.2c0-1.6,1-3,3.6-3c1.8,0,2.9,0.6,3.6,1.8L1459.9,2869.8z"/>
		</g>
	</g>
</g>
</svg>
